HIERARCHY
ROOT hip
{
	OFFSET 0.000000 0.000000 0.000000
	CHANNELS 6 Xposition Yposition Zposition Xrotation Zrotation Yrotation 
	JOINT abdomen
	{
		OFFSET 0.000000 3.422050 0.000000
		CHANNELS 3 Xrotation Zrotation Yrotation 
		JOINT chest
		{
			OFFSET 0.000000 8.486693 -0.684411
			CHANNELS 3 Xrotation Zrotation Yrotation 
			JOINT neck
			{
				OFFSET 0.000000 10.266162 -0.273764
				CHANNELS 3 Xrotation Zrotation Yrotation 
				JOINT head
				{
					OFFSET 0.000000 3.148285 0.000000
					CHANNELS 3 Xrotation Zrotation Yrotation 
					End Site
					{
						OFFSET 0.000000 3.148289 0.000000
					}
				}
			}
			JOINT lCollar
			{
				OFFSET 3.422053 6.707223 -0.821293
				CHANNELS 3 Yrotation Zrotation Xrotation 
				JOINT lShldr
				{
					OFFSET 3.285171 0.000000 0.000000
					CHANNELS 3 Zrotation Yrotation Xrotation 
					JOINT lForeArm
					{
						OFFSET 10.129278 0.000000 0.000000
						CHANNELS 3 Yrotation Zrotation Xrotation 
						JOINT lHand
						{
							OFFSET 8.486692 0.000000 0.000000
							CHANNELS 3 Zrotation Yrotation Xrotation 
							End Site
							{
								OFFSET 4.106464 0.000000 0.000000
							}
						}
					}
				}
			}
			JOINT rCollar
			{
				OFFSET -3.558935 6.707223 -0.821293
				CHANNELS 3 Yrotation Zrotation Xrotation 
				JOINT rShldr
				{
					OFFSET -3.148289 0.000000 0.000000
					CHANNELS 3 Zrotation Yrotation Xrotation 
					JOINT rForeArm
					{
						OFFSET -10.266159 0.000000 0.000000
						CHANNELS 3 Yrotation Zrotation Xrotation 
						JOINT rHand
						{
							OFFSET -8.349810 0.000000 0.000000
							CHANNELS 3 Zrotation Yrotation Xrotation 
							End Site
							{
								OFFSET -4.106464 0.000000 0.000000
							}
						}
					}
				}
			}
		}
	}
	JOINT lThigh
	{
		OFFSET 5.338403 -1.642589 1.368821
		CHANNELS 3 Xrotation Zrotation Yrotation 
		JOINT lShin
		{
			OFFSET -2.053232 -20.121670 0.000000
			CHANNELS 3 Xrotation Zrotation Yrotation 
			JOINT lFoot
			{
				OFFSET 0.000000 -19.300380 -1.231939
				CHANNELS 3 Xrotation Yrotation Zrotation 
				End Site
				{
					OFFSET 0.000000 -2.463878 4.653993
				}
			}
		}
	}
	JOINT rThigh
	{
		OFFSET -5.338403 -1.642589 1.368821
		CHANNELS 3 Xrotation Zrotation Yrotation 
		JOINT rShin
		{
			OFFSET 2.053232 -20.121670 0.000000
			CHANNELS 3 Xrotation Zrotation Yrotation 
			JOINT rFoot
			{
				OFFSET 0.000000 -19.300380 -1.231939
				CHANNELS 3 Xrotation Yrotation Zrotation 
				End Site
				{
					OFFSET 0.000000 -2.463878 4.653993
				}
			}
		}
	}
}
MOTION
Frames: 10
Frame Time: 0.066530
0.000000 43.528500 0.000000 0.000000 0.000000 0.000000 0.000000 0.000000 0.000000 0.000000 0.000000 0.000000 0.000000 0.000000 0.000000 0.000000 0.000000 0.000000 0.000000 0.000000 0.000000 0.000000 0.000000 0.000000 0.000000 0.000000 0.000000 0.000000 0.000000 0.000000 0.000000 0.000000 0.000000 0.000000 0.000000 0.000000 0.000000 0.000000 0.000000 0.000000 0.000000 0.000000 0.000000 0.000000 0.000000 0.000000 0.000000 0.000000 0.000000 0.000000 0.000000 0.000000 0.000000 0.000000 0.000000 0.000000 0.000000 0.000000 0.000000 0.000000 
15.994889 42.996826 9.999444 0.000000 0.000000 180.000000 0.397400 -1.055113 -0.809792 2.255747 -6.735540 -3.340939 3.662927 -3.339051 -0.035039 -8.576963 -29.501148 -0.150954 -21.773512 -46.464924 -20.644514 -15.213215 -20.139345 -0.623955 -25.849545 -1.239025 -0.393784 -9.629395 17.974020 1.872343 24.471647 46.363964 -23.025255 18.890013 12.241160 -0.232400 123.247566 -26.917374 -29.654947 19.904110 -0.866552 0.314861 -3.218034 0.826483 0.216426 10.276012 -2.295355 -0.071216 -4.713701 -2.801939 3.286495 -3.218007 -0.830076 -0.219834 10.275931 2.292192 0.067412 -4.713705 2.798594 -3.290124 
15.994889 42.996826 9.999444 0.000000 0.000000 180.000000 0.397400 -1.055113 -0.809792 2.255747 -6.735540 -3.340939 3.662927 -3.339051 -0.035039 -8.554543 -29.117096 -0.154725 -21.773512 -46.464924 -20.644514 -15.213215 -20.139345 -0.623955 -26.662888 -1.255927 -0.377046 -9.885767 17.669176 1.803912 24.471647 46.363964 -23.025255 18.890013 12.241160 -0.232400 122.606026 -26.266314 -29.692427 19.904110 -0.866552 0.314861 -3.218034 0.826483 0.216426 10.276012 -2.295355 -0.071216 -4.713701 -2.801939 3.286495 -3.218007 -0.830076 -0.219834 10.275931 2.292192 0.067412 -4.713705 2.798594 -3.290124 
15.994889 42.996826 9.999444 0.000000 0.000000 180.000000 0.397400 -1.055113 -0.809792 2.255747 -6.735540 -3.340939 3.662927 -3.339051 -0.035039 -8.532217 -28.732718 -0.158312 -21.773514 -46.464928 -20.644516 -15.213215 -20.139345 -0.623955 -27.479530 -1.273134 -0.360482 -10.141547 17.363770 1.736967 24.471647 46.363964 -23.025255 18.890015 12.241161 -0.232400 121.965225 -25.611584 -29.721743 19.904112 -0.866552 0.314861 -3.218034 0.826483 0.216426 10.276012 -2.295355 -0.071216 -4.713701 -2.801939 3.286495 -3.218007 -0.830076 -0.219834 10.275931 2.292192 0.067412 -4.713705 2.798594 -3.290124 
15.994889 42.996826 9.999444 0.000000 0.000000 180.000000 0.397400 -1.055113 -0.809792 2.255747 -6.735540 -3.340939 3.662927 -3.339051 -0.035039 -8.509976 -28.348015 -0.161720 -21.773512 -46.464924 -20.644514 -15.213215 -20.139345 -0.623955 -28.299412 -1.290645 -0.344102 -10.396751 17.057823 1.671505 24.471647 46.363964 -23.025255 18.890013 12.241160 -0.232400 121.325089 -24.953333 -29.742910 19.904110 -0.866552 0.314861 -3.218034 0.826483 0.216426 10.276012 -2.295355 -0.071216 -4.713701 -2.801939 3.286495 -3.218007 -0.830076 -0.219834 10.275931 2.292192 0.067412 -4.713705 2.798594 -3.290124 
15.994889 42.996826 9.999444 0.000000 0.000000 180.000000 0.397400 -1.055113 -0.809792 2.255747 -6.735541 -3.340939 3.662927 -3.339051 -0.035039 -8.487827 -27.963007 -0.164948 -21.773512 -46.464924 -20.644514 -15.213217 -20.139347 -0.623955 -29.122475 -1.308458 -0.327911 -10.651382 16.751345 1.607520 24.471647 46.363964 -23.025255 18.890013 12.241160 -0.232400 120.685486 -24.291698 -29.755945 19.904110 -0.866552 0.314861 -3.218034 0.826483 0.216426 10.276012 -2.295355 -0.071216 -4.713701 -2.801939 3.286495 -3.218007 -0.830076 -0.219834 10.275931 2.292192 0.067412 -4.713706 2.798594 -3.290124 
15.994889 42.996826 9.999444 0.000000 0.000000 180.000000 0.397400 -1.055113 -0.809792 2.255747 -6.735540 -3.340939 3.662927 -3.339051 -0.035039 -8.465762 -27.577690 -0.167999 -21.773514 -46.464928 -20.644516 -15.213217 -20.139347 -0.623955 -29.948645 -1.326570 -0.311918 -10.905459 16.444351 1.545009 24.471647 46.363964 -23.025255 18.890013 12.241160 -0.232400 120.046272 -23.626808 -29.760845 19.904114 -0.866552 0.314861 -3.218035 0.826483 0.216426 10.276012 -2.295355 -0.071216 -4.713701 -2.801939 3.286495 -3.218007 -0.830076 -0.219834 10.275931 2.292192 0.067412 -4.713706 2.798594 -3.290124 
15.994889 42.996826 9.999444 0.000000 0.000000 180.000000 0.397400 -1.055113 -0.809792 2.255747 -6.735540 -3.340939 3.662927 -3.339051 -0.035039 -8.443784 -27.192089 -0.170876 -21.773510 -46.464924 -20.644514 -15.213214 -20.139343 -0.623955 -30.777853 -1.344978 -0.296131 -11.158985 16.136858 1.483965 24.471643 46.363956 -23.025251 18.890013 12.241160 -0.232400 119.407379 -22.958828 -29.757635 19.904108 -0.866552 0.314861 -3.218034 0.826483 0.216426 10.276012 -2.295355 -0.071216 -4.713700 -2.801939 3.286494 -3.218007 -0.830076 -0.219834 10.275931 2.292192 0.067412 -4.713705 2.798594 -3.290123 
15.994889 42.996826 9.999444 0.000000 0.000000 180.000000 0.397400 -1.055113 -0.809792 2.255747 -6.735540 -3.340939 3.662927 -3.339051 -0.035039 -8.421881 -26.806189 -0.173578 -21.773510 -46.464916 -20.644512 -15.213215 -20.139343 -0.623955 -31.610033 -1.363681 -0.280557 -11.411974 15.828872 1.424386 24.471643 46.363956 -23.025251 18.890013 12.241160 -0.232400 118.768661 -22.287891 -29.746321 19.904110 -0.866552 0.314861 -3.218034 0.826483 0.216426 10.276012 -2.295355 -0.071216 -4.713700 -2.801939 3.286494 -3.218007 -0.830076 -0.219834 10.275931 2.292192 0.067412 -4.713705 2.798594 -3.290124 
15.994889 42.996826 9.999444 0.000000 0.000000 180.000000 0.397400 -1.055113 -0.809792 2.255747 -6.735539 -3.340938 3.662927 -3.339051 -0.035039 -8.400061 -26.420029 -0.176109 -21.773512 -46.464924 -20.644514 -15.213215 -20.139343 -0.623955 -32.445107 -1.382673 -0.265203 -11.664438 15.520413 1.366267 24.471643 46.363960 -23.025253 18.890013 12.241160 -0.232400 118.130005 -21.614159 -29.726917 19.904110 -0.866552 0.314861 -3.218034 0.826483 0.216426 10.276012 -2.295355 -0.071216 -4.713700 -2.801939 3.286495 -3.218007 -0.830076 -0.219834 10.275931 2.292192 0.067412 -4.713705 2.798594 -3.290124 
